<?xml version="1.0" encoding="utf-8"?>
<!-- Generator: Adobe Illustrator 25.4.1, SVG Export Plug-In . SVG Version: 6.00 Build 0)  -->
<svg version="1.1" id="Layer_1" xmlns="http://www.w3.org/2000/svg" xmlns:xlink="http://www.w3.org/1999/xlink" x="0px" y="0px"
	 viewBox="0 0 612 792" style="enable-background:new 0 0 612 792;" xml:space="preserve">
<style type="text/css">
	.st0{fill:#00002D;}
</style>
<path class="st0" d="M222.32,265.57c0,24.09,19.59,43.68,43.67,43.68v25c-7.11,0-13.97-1.08-20.42-3.09
	c-0.43-0.13-0.85-0.27-1.27-0.41c-0.47-0.16-0.94-0.32-1.4-0.49c-26.3-9.63-45.07-34.88-45.07-64.51c0-37.76,30.47-68.4,68.16-68.67
	v24.81C241.91,221.89,222.32,241.49,222.32,265.57z"/>
<path class="st0" d="M323.73,278.84c13.57-7.41,22.8-21.83,22.8-38.35c0-22.08-16.47-40.38-37.76-43.28
	c-1.83-0.15-3.68-0.22-5.55-0.22c-0.12,0-0.25,0-0.37,0.01v-0.01h-3.93L279.33,197v137.17l23.52,0.17v-41.07l32.89,32.89
	c4.37-2.35,8.45-5.16,12.19-8.37l7.37-7.37L323.73,278.84z M321.53,240.49c0,10.3-8.38,18.68-18.68,18.68v-37.36
	C313.15,221.81,321.53,230.19,321.53,240.49z"/>
</svg>
